<?xml version="1.0" encoding="UTF-8"?>
<svg width="128px" height="124px" viewBox="0 0 128 124" version="1.1" xmlns="http://www.w3.org/2000/svg" xmlns:xlink="http://www.w3.org/1999/xlink">
    <!-- Generator: Sketch 51.2 (57519) - http://www.bohemiancoding.com/sketch -->
    <title>menu (3)</title>
    <desc>Created with Sketch.</desc>
    <defs></defs>
    <g id="Page-1" stroke="none" stroke-width="1" fill="none" fill-rule="evenodd">
        <g id="menu-(3)" fill-rule="nonzero">
            <path d="M105.931034,114.206897 C112.91926,114.206897 118.62069,108.505467 118.62069,101.517241 L118.62069,22.0689655 C118.62069,15.0807397 112.91926,9.37931034 105.931034,9.37931034 L22.0689655,9.37931034 C15.0807397,9.37931034 9.37931034,15.0807397 9.37931034,22.0689655 L9.37931034,101.517241 C9.37931034,108.505467 15.0807397,114.206897 22.0689655,114.206897 L105.931034,114.206897 Z M105.931034,123.586207 L22.0689655,123.586207 C9.90068966,123.586207 0,113.685517 0,101.517241 L0,22.0689655 C0,9.90068966 9.90068966,0 22.0689655,0 L105.931034,0 C118.09931,0 128,9.90068966 128,22.0689655 L128,101.517241 C128,113.685517 118.09931,123.586207 105.931034,123.586207 Z" id="Shape" fill="#DDDEE2"></path>
            <g id="Group" transform="translate(30.896552, 35.310345)" fill="#7DCF24">
                <path d="M4.4137931,0 L61.7931034,0 C64.2307741,-4.47792828e-16 66.2068966,1.97612248 66.2068966,4.4137931 L66.2068966,4.4137931 C66.2068966,6.85146372 64.2307741,8.82758621 61.7931034,8.82758621 L4.4137931,8.82758621 C1.97612248,8.82758621 2.98528552e-16,6.85146372 0,4.4137931 L0,4.4137931 C-2.98528552e-16,1.97612248 1.97612248,1.33597125e-15 4.4137931,8.8817842e-16 Z" id="Shape"></path>
                <path d="M4.4137931,22.0689655 L61.7931034,22.0689655 C64.2307741,22.0689655 66.2068966,24.045088 66.2068966,26.4827586 L66.2068966,26.4827586 C66.2068966,28.9204292 64.2307741,30.8965517 61.7931034,30.8965517 L4.4137931,30.8965517 C1.97612248,30.8965517 2.98528552e-16,28.9204292 0,26.4827586 L0,26.4827586 C-2.98528552e-16,24.045088 1.97612248,22.0689655 4.4137931,22.0689655 Z" id="Shape"></path>
                <path d="M4.4137931,44.137931 L61.7931034,44.137931 C64.2307741,44.137931 66.2068966,46.1140535 66.2068966,48.5517241 L66.2068966,48.5517241 C66.2068966,50.9893948 64.2307741,52.9655172 61.7931034,52.9655172 L4.4137931,52.9655172 C1.97612248,52.9655172 2.98528552e-16,50.9893948 0,48.5517241 L0,48.5517241 C-2.98528552e-16,46.1140535 1.97612248,44.137931 4.4137931,44.137931 Z" id="Shape"></path>
            </g>
        </g>
    </g>
</svg>