<?xml version="1.0" encoding="UTF-8"?>
<svg width="129px" height="124px" viewBox="0 0 129 124" version="1.1" xmlns="http://www.w3.org/2000/svg" xmlns:xlink="http://www.w3.org/1999/xlink">
    <!-- Generator: Sketch 51.2 (57519) - http://www.bohemiancoding.com/sketch -->
    <title>menu (3) copy 2</title>
    <desc>Created with Sketch.</desc>
    <defs></defs>
    <g id="Page-1" stroke="none" stroke-width="1" fill="none" fill-rule="evenodd">
        <g id="menu-(3)-copy-2" transform="translate(64.128906, 62.117741) scale(-1, -1) translate(-64.128906, -62.117741) translate(0.128906, 0.589844)" fill-rule="nonzero">
            <path d="M122.781116,57.6652361 L122.781116,57.6652361 C120.202207,57.6652361 118.111588,55.5746172 118.111588,52.9957082 L118.111588,21.9742489 C118.111588,15.0160155 112.434628,9.33905579 105.476395,9.33905579 L21.9742489,9.33905579 C15.0160155,9.33905579 9.33905579,15.0160155 9.33905579,21.9742489 L9.33905579,101.081545 C9.33905579,108.039778 15.0160155,113.716738 21.9742489,113.716738 L57.2253219,113.716738 C59.8042309,113.716738 61.8948498,115.807357 61.8948498,118.386266 L61.8948498,118.386266 C61.8948498,120.965175 59.8042309,123.055794 57.2253219,123.055794 L21.9742489,123.055794 C9.85819742,123.055794 0,113.197597 0,101.081545 L0,21.9742489 C0,9.85819742 9.85819742,0 21.9742489,0 L105.476395,0 C117.592446,0 127.450644,9.85819742 127.450644,21.9742489 L127.450644,52.9957082 C127.450644,55.5746172 125.360025,57.6652361 122.781116,57.6652361 Z" id="Shape" fill="#DDDEE2" transform="translate(63.725322, 61.527897) scale(1, -1) translate(-63.725322, -61.527897) "></path>
            <g id="Group" transform="translate(69.387917, 0.000000)" fill="#7DCF24">
                <path d="M53.2241664,43.5470452 C50.549652,43.5470452 48.3856058,41.382999 48.3856058,38.7084846 L48.3856058,9.67712116 L19.3542423,9.67712116 C16.679728,9.67712116 14.5156817,7.51307494 14.5156817,4.83856058 C14.5156817,2.16404622 16.679728,0 19.3542423,0 L53.2241664,0 C55.8986808,0 58.062727,2.16404622 58.062727,4.83856058 L58.062727,38.7084846 C58.062727,41.382999 55.8986808,43.5470452 53.2241664,43.5470452 Z" id="Shape"></path>
                <path d="M4.83856058,58.062727 C3.60049389,58.062727 2.3624272,57.5903625 1.41769825,56.6450287 C-0.472364477,54.754966 -0.472364477,51.692762 1.41769825,49.8033041 L49.8033041,1.41769825 C51.6933668,-0.472364477 54.7555708,-0.472364477 56.6450287,1.41769825 C58.5344866,3.30776098 58.5350914,6.369965 56.6450287,8.25942291 L8.25942291,56.6450287 C7.31469396,57.5903625 6.07662727,58.062727 4.83856058,58.062727 Z" id="Shape"></path>
            </g>
        </g>
    </g>
</svg>