<?xml version="1.0" encoding="UTF-8"?>
<svg width="128px" height="124px" viewBox="0 0 128 124" version="1.1" xmlns="http://www.w3.org/2000/svg" xmlns:xlink="http://www.w3.org/1999/xlink">
    <!-- Generator: Sketch 51.2 (57519) - http://www.bohemiancoding.com/sketch -->
    <title>menu (2)</title>
    <desc>Created with Sketch.</desc>
    <defs></defs>
    <g id="Page-1" stroke="none" stroke-width="1" fill="none" fill-rule="evenodd">
        <g id="menu-(2)" fill-rule="nonzero">
            <path d="M47.5982857,59.238825 L11.8302857,59.238825 C5.308,59.238825 0,53.9477727 0,47.4463116 L0,11.7925134 C0,5.29105236 5.308,0 11.8302857,0 L47.5982857,0 C54.1205714,0 59.4285714,5.29105236 59.4285714,11.7925134 L59.4285714,47.4463116 C59.4285714,53.9477727 54.1205714,59.238825 47.5982857,59.238825 Z M11.8302857,9.11366539 C10.348,9.11366539 9.14285714,10.3149604 9.14285714,11.7925134 L9.14285714,47.4463116 C9.14285714,48.9238646 10.348,50.1251596 11.8302857,50.1251596 L47.5982857,50.1251596 C49.0805714,50.1251596 50.2857143,48.9238646 50.2857143,47.4463116 L50.2857143,11.7925134 C50.2857143,10.3149604 49.0805714,9.11366539 47.5982857,9.11366539 L11.8302857,9.11366539 Z" id="Shape" fill="#DDDEE2"></path>
            <path d="M116.169714,59.238825 L80.4017143,59.238825 C73.8794286,59.238825 68.5714286,53.9477727 68.5714286,47.4463116 L68.5714286,11.7925134 C68.5714286,5.29105236 73.8794286,0 80.4017143,0 L116.169714,0 C122.692,0 128,5.29105236 128,11.7925134 L128,47.4463116 C128,53.9477727 122.692,59.238825 116.169714,59.238825 Z M80.4017143,9.11366539 C78.9194286,9.11366539 77.7142857,10.3149604 77.7142857,11.7925134 L77.7142857,47.4463116 C77.7142857,48.9238646 78.9194286,50.1251596 80.4017143,50.1251596 L116.169714,50.1251596 C117.652,50.1251596 118.857143,48.9238646 118.857143,47.4463116 L118.857143,11.7925134 C118.857143,10.3149604 117.652,9.11366539 116.169714,9.11366539 L80.4017143,9.11366539 Z" id="Shape" fill="#DDDEE2"></path>
            <path d="M47.5982857,123.034483 L11.8302857,123.034483 C5.308,123.034483 0,117.74343 0,111.241969 L0,75.5881711 C0,69.0867101 5.308,63.7956577 11.8302857,63.7956577 L47.5982857,63.7956577 C54.1205714,63.7956577 59.4285714,69.0867101 59.4285714,75.5881711 L59.4285714,111.241969 C59.4285714,117.74343 54.1205714,123.034483 47.5982857,123.034483 Z M11.8302857,72.9093231 C10.348,72.9093231 9.14285714,74.1106181 9.14285714,75.5881711 L9.14285714,111.241969 C9.14285714,112.719522 10.348,113.920817 11.8302857,113.920817 L47.5982857,113.920817 C49.0805714,113.920817 50.2857143,112.719522 50.2857143,111.241969 L50.2857143,75.5881711 C50.2857143,74.1106181 49.0805714,72.9093231 47.5982857,72.9093231 L11.8302857,72.9093231 Z" id="Shape" fill="#7DCF24"></path>
            <path d="M116.169714,123.034483 L80.4017143,123.034483 C73.8794286,123.034483 68.5714286,117.74343 68.5714286,111.241969 L68.5714286,75.5881711 C68.5714286,69.0867101 73.8794286,63.7956577 80.4017143,63.7956577 L116.169714,63.7956577 C122.692,63.7956577 128,69.0867101 128,75.5881711 L128,111.241969 C128,117.74343 122.692,123.034483 116.169714,123.034483 Z M80.4017143,72.9093231 C78.9194286,72.9093231 77.7142857,74.1106181 77.7142857,75.5881711 L77.7142857,111.241969 C77.7142857,112.719522 78.9194286,113.920817 80.4017143,113.920817 L116.169714,113.920817 C117.652,113.920817 118.857143,112.719522 118.857143,111.241969 L118.857143,75.5881711 C118.857143,74.1106181 117.652,72.9093231 116.169714,72.9093231 L80.4017143,72.9093231 Z" id="Shape" fill="#DDDEE2"></path>
        </g>
    </g>
</svg>