<?xml version="1.0" encoding="UTF-8"?>
<svg width="128px" height="129px" viewBox="0 0 128 129" version="1.1" xmlns="http://www.w3.org/2000/svg" xmlns:xlink="http://www.w3.org/1999/xlink">
    <!-- Generator: Sketch 51.2 (57519) - http://www.bohemiancoding.com/sketch -->
    <title>home</title>
    <desc>Created with Sketch.</desc>
    <defs></defs>
    <g id="Page-1" stroke="none" stroke-width="1" fill="none" fill-rule="evenodd">
        <g id="home" transform="translate(0.000000, 0.645638)" fill="#DDDEE2" fill-rule="nonzero">
            <path d="M64.0757333,128 C40.2506667,128 18.5424,114.896 7.4256,93.8042667 C6.32586667,91.7210667 7.12586667,89.1418667 9.21333333,88.0416 C11.2965333,86.9498667 13.8757333,87.7456 14.976,89.8293333 C24.6133333,108.108267 43.4256,119.466667 64.0757333,119.466667 C93.0672,119.466667 117.367467,96.8416 119.4048,67.9541333 C119.5712,65.6042667 121.546667,63.7664 123.958933,64 C126.3088,64.1626667 128.08,66.2042667 127.913067,68.5541333 C125.567467,101.887467 97.5258667,128 64.0757333,128 Z" id="Shape"></path>
            <path d="M4.3424,68.2666667 C1.984,68.2666667 0.0757333333,66.3584 0.0757333333,64 C0.0757333333,28.7082667 28.784,0 64.0757333,0 C87.4421333,0 108.950933,12.7333333 120.209067,33.2293333 C121.3424,35.296 120.588267,37.8874667 118.5216,39.0250667 C116.463467,40.1461333 113.863467,39.4 112.725867,37.3376 C102.967467,19.5706667 84.3258667,8.53333333 64.0757333,8.53333333 C33.4922667,8.53333333 8.60906667,33.4165333 8.60906667,64 C8.60906667,66.3584 6.7008,68.2666667 4.3424,68.2666667 Z" id="Shape"></path>
            <g id="Group" transform="translate(0.000000, 17.066667)">
                <path d="M119.5424,25.6 L102.475733,25.6 C100.117333,25.6 98.2090667,23.6917333 98.2090667,21.3333333 C98.2090667,18.9749333 100.117333,17.0666667 102.475733,17.0666667 L115.275733,17.0666667 L115.275733,4.26666667 C115.275733,1.90826667 117.184,0 119.5424,0 C121.9008,0 123.809067,1.90826667 123.809067,4.26666667 L123.809067,21.3333333 C123.809067,23.6917333 121.9008,25.6 119.5424,25.6 Z" id="Shape"></path>
                <path d="M4.3424,89.6 C1.984,89.6 0.0757333333,87.6917333 0.0757333333,85.3333333 L0.0757333333,68.2666667 C0.0757333333,65.9082667 1.984,64 4.3424,64 L21.4090667,64 C23.7674667,64 25.6757333,65.9082667 25.6757333,68.2666667 C25.6757333,70.6250667 23.7674667,72.5333333 21.4090667,72.5333333 L8.60906667,72.5333333 L8.60906667,85.3333333 C8.60906667,87.6917333 6.7008,89.6 4.3424,89.6 Z" id="Shape"></path>
            </g>
        </g>
    </g>
</svg>